Genre:Action
Language:English
 
http://www.imdb.com/title/tt1376404/

Source:DVD


Format : MPEG-4
Format profile : Base Media
Codec ID : isom
File size : 716 MiB
Duration : 1h 26mn
Overall bit rate : 1 156 Kbps
Movie name : Freight.2010.DvDRip.x264.Feel-Free


Video
Format settings, CABAC : Yes
Format settings, ReFrames : 4 frames
Codec ID : avc1
Codec ID/Info : Advanced Video Coding
Duration : 1h 26mn
Bit rate mode : Variable
Bit rate : 976 Kbps
Width : 720 pixels
Height : 392 pixels
Display aspect ratio : 16:9
Frame rate mode : Constant
Frame rate : 25.000 fps
Color space : YUV
Chroma subsampling : 4:2:0
Bit depth : 8 bits
Scan type : Progressive
Bits/(Pixel*Frame) : 0.138
Stream size : 610 MiB (85%)
Writing library : x264


Audio
ID : 2
Format : AAC
Format/Info : Advanced Audio Codec
Format version : Version 4
Format profile : LC
Codec ID : 40
Duration : 1h 26mn
Bit rate mode : Variable
Bit rate : 165 Kbps
Channel(s) : 2 channels
Channel positions : Front: L R
Sampling rate : 48.0 KHz
Stream size : 102 MiB (14%)


Plot:
A Russian gang in the UK traffic Eastern Europeans then enslave them, the women to sex, the men to illegal fights. They cross a local businessman and a war escalates
 
http://rapidhdd.com/images/276205vlcsnap-00001.png
 
http://www.rapidhdd.com/images/360470vlcsnap-00002.png
 
http://www.rapidhdd.com/images/120280vlcsnap-00003.png
 
http://www.rapidhdd.com/images/655920vlcsnap-00005.png
 
http://www.rapidhdd.com/images/374102vlcsnap-00004.png

